HIERARCHY
ROOT Hips
{
	OFFSET	0.00	0.00	0.00
	CHANNELS 6 Xposition Yposition Zposition Zrotation Xrotation Yrotation
	JOINT LeftUpLeg
	{
		OFFSET	 0.126116	-0.014019	-0.065224
		CHANNELS 3 Zrotation Xrotation Yrotation
		JOINT LeftLeg
		{
			OFFSET	 0.000000	 0.000000	 0.569914
			CHANNELS 3 Zrotation Xrotation Yrotation
			JOINT LeftFoot
			{
				OFFSET	 0.000000	 0.000000	 0.544423
				CHANNELS 3 Zrotation Xrotation Yrotation
				JOINT LeftToeBase
				{
					OFFSET	 0.000000	 0.000000	 0.207117
					CHANNELS 3 Zrotation Xrotation Yrotation
					End Site
					{
						OFFSET	 0.000000	 0.000000	 0.207117
					}
				}
			}
		}
	}
	JOINT RightUpLeg
	{
		OFFSET	-0.124023	-0.008373	-0.065224
		CHANNELS 3 Zrotation Xrotation Yrotation
		JOINT RightLeg
		{
			OFFSET	 0.000000	 0.000000	 0.570047
			CHANNELS 3 Zrotation Xrotation Yrotation
			JOINT RightFoot
			{
				OFFSET	 0.000000	 0.000000	 0.544354
				CHANNELS 3 Zrotation Xrotation Yrotation
				JOINT RightToeBase
				{
					OFFSET	 0.000000	 0.000000	 0.207540
					CHANNELS 3 Zrotation Xrotation Yrotation
					End Site
					{
						OFFSET	 0.000000	 0.000000	 0.207540
					}
				}
			}
		}
	}
	JOINT Spine
	{
		OFFSET	 0.000184	-0.007763	 0.117403
		CHANNELS 3 Zrotation Xrotation Yrotation
		JOINT Spine1
		{
			OFFSET	 0.000000	 0.000000	 0.137269
			CHANNELS 3 Zrotation Xrotation Yrotation
			JOINT Spine2
			{
				OFFSET	 0.000000	 0.000000	 0.156879
				CHANNELS 3 Zrotation Xrotation Yrotation
				JOINT LeftShoulder
				{
					OFFSET	 0.080501	-0.002496	 0.160144
					CHANNELS 3 Zrotation Xrotation Yrotation
					JOINT LeftArm
					{
						OFFSET	 0.000000	 0.000000	 0.164363
						CHANNELS 3 Zrotation Xrotation Yrotation
						JOINT LeftForeArm
						{
							OFFSET	 0.000000	 0.000000	 0.364576
							CHANNELS 3 Zrotation Xrotation Yrotation
							JOINT LeftHand
							{
								OFFSET	 0.000000	 0.000000	 0.360812
								CHANNELS 3 Zrotation Xrotation Yrotation
								JOINT LeftHandIndex1
								{
									OFFSET	 0.000000	 0.000000	 0.086006
									CHANNELS 3 Zrotation Xrotation Yrotation
									JOINT LeftHandIndex2
									{
										OFFSET	 0.000000	 0.000000	 0.047236
										CHANNELS 3 Zrotation Xrotation Yrotation
										JOINT LeftHandIndex3
										{
											OFFSET	-0.004284	-0.000551	 0.038166
											CHANNELS 3 Zrotation Xrotation Yrotation
											End Site
											{
												OFFSET	-0.004284	-0.000551	 0.038166
											}
										}
									}
								}
							}
						}
					}
				}
				JOINT Neck
				{
					OFFSET	 0.000000	 0.000000	 0.176489
					CHANNELS 3 Zrotation Xrotation Yrotation
					JOINT Head
					{
						OFFSET	 0.000000	-0.001747	 0.077940
						CHANNELS 3 Zrotation Xrotation Yrotation
						End Site
						{
							OFFSET	 0.000000	-0.001747	 0.077940
						}
					}
				}
				JOINT RightShoulder
				{
					OFFSET	-0.080363	 0.000306	 0.159706
					CHANNELS 3 Zrotation Xrotation Yrotation
					JOINT RightArm
					{
						OFFSET	 0.000000	 0.000000	 0.164196
						CHANNELS 3 Zrotation Xrotation Yrotation
						JOINT RightForeArm
						{
							OFFSET	 0.000000	 0.000000	 0.365611
							CHANNELS 3 Zrotation Xrotation Yrotation
							JOINT RightHand
							{
								OFFSET	 0.000000	 0.000000	 0.360648
								CHANNELS 3 Zrotation Xrotation Yrotation
								JOINT RightHandIndex1
								{
									OFFSET	 0.000000	 0.000000	 0.069977
									CHANNELS 3 Zrotation Xrotation Yrotation
									JOINT RightHandIndex2
									{
										OFFSET	 0.000000	 0.000000	 0.052305
										CHANNELS 3 Zrotation Xrotation Yrotation
										JOINT RightHandIndex3
										{
											OFFSET	 0.009002	-0.000782	 0.042196
											CHANNELS 3 Zrotation Xrotation Yrotation
											End Site
											{
												OFFSET	 0.009002	-0.000782	 0.042196
											}
										}
									}
								}
							}
						}
					}
				}
			}
		}
	}
}
MOTION
Frames:    9
Frame Time: 0.03333334
 0.012995	 0.060898	 1.202556	 5.043882	-1.256943	-3.137306	-0.318314	-12.387230	-170.659800	 0.953366	-38.246600	 0.371840	 49.805000	 79.684960	-54.122750	-2.369651	 31.572430	-0.068962	-5.129018	-29.859930	-176.396900	 11.223330	-52.734560	 9.586155	 22.794540	 79.116350	-18.905130	 2.358833	 33.020540	 0.103702	-3.541969	 8.717794	 1.621906	-0.588808	 1.897678	 0.478281	-1.301885	-2.315708	-0.565992	-93.948850	 58.949750	 175.367900	 24.728610	 43.548970	-27.936500	-1.591877	-1.968618	-18.829620	-1.666198	-25.251010	-8.199158	-4.870164	 19.241640	-2.790614	-3.878886	 21.506590	 2.200072	-4.806316	 5.568420	 0.145631	-0.073414	-5.078072	 0.185419	-3.342309	 2.199655	 2.512561	 89.776820	 61.650620	 179.987500	-20.399770	 53.536250	 10.319730	-1.535501	-2.723046	 13.876200	-4.762482	-10.624470	 0.572688	 6.292475	 24.735260	-0.539023	 1.901483	 44.571190	-7.007355	 0.548758	 24.177480	 3.556894
 0.012579	 0.054646	 1.202513	 5.567961	-0.810513	-3.160861	-0.769111	-12.573260	-170.684400	 1.181101	-38.172230	 0.511988	 49.038120	 79.628950	-53.517300	-2.368771	 31.719260	-0.072293	-6.511715	-30.971710	-176.454000	 12.006660	-52.063400	 10.130360	 41.354060	 82.691750	-38.407090	 2.358982	 32.998520	 0.103186	-3.848691	 8.422278	 1.500856	-0.570129	 1.639201	 0.624422	-1.396865	-2.312889	-0.611021	-94.073250	 58.975030	 175.099500	 25.130590	 43.024010	-27.990320	-1.843620	-1.997481	-19.897000	-1.540106	-26.045130	-8.805419	-4.866181	 19.344770	-2.797630	-3.872022	 21.594220	 2.193099	-4.804762	 5.586678	 0.144560	-0.046687	-5.099329	 0.220242	-3.347347	 2.167199	 2.435276	 89.729450	 61.734020	 179.874100	-20.006190	 53.863380	 9.562736	-1.918386	-2.853283	 14.026630	-4.924294	-10.860860	 0.395466	 6.280672	 23.861460	-0.547280	 2.006156	 43.706360	-7.100362	 0.732665	 23.363450	 3.465008
 0.011947	 0.036772	 1.202228	 6.290069	 0.057924	-3.398895	-1.365143	-12.436760	-170.580500	 1.485334	-37.725440	 0.693081	 48.520340	 79.674880	-53.210860	-2.366564	 32.078060	-0.080454	-8.139823	-33.400170	-176.353900	 13.056850	-49.943810	 10.659110	 98.264270	 82.934420	-97.339290	 2.360407	 32.786570	 0.098278	-4.242015	 7.759195	 1.449797	-0.538941	 1.433473	 0.902908	-1.552569	-2.380387	-0.714359	-94.293750	 58.989160	 174.627400	 25.491100	 41.707240	-28.312910	-2.508018	-1.973863	-22.150150	-1.470819	-27.971900	-9.079733	-4.852924	 19.657920	-2.813034	-3.855633	 21.802710	 2.176439	-4.797785	 5.668898	 0.139741	-0.012263	-5.155456	 0.289683	-3.386774	 2.111802	 2.359229	 89.610220	 61.900420	 179.586500	-19.199340	 54.535470	 7.916791	-2.965730	-3.194879	 14.319670	-5.558239	-11.458240	-0.305200	 6.251482	 22.009180	-0.594497	 2.193483	 42.083980	-7.265598	 1.142660	 21.506860	 3.268042
 0.011436	 0.012716	 1.201607	 6.566594	 0.626469	-3.761343	-1.609969	-11.400160	-170.386800	 1.632735	-36.898090	 0.768596	 48.428180	 79.794150	-53.208020	-2.361889	 32.802370	-0.097092	-7.732728	-35.399800	-175.830500	 12.920310	-46.694260	 10.043080	 121.860400	 78.670760	-122.292300	 2.357016	 33.284820	 0.109856	-4.446640	 7.165762	 1.611362	-0.510369	 1.802629	 1.080483	-1.627704	-2.586175	-0.787858	-94.430770	 58.972660	 174.338000	 25.044750	 40.227710	-29.008030	-3.254667	-1.821916	-23.972200	-1.729542	-29.826860	-8.619078	-4.834659	 20.042030	-2.821720	-3.835363	 22.058860	 2.155864	-4.781345	 5.862203	 0.128369	 0.010536	-5.236487	 0.332373	-3.412807	 2.046324	 2.323364	 89.492530	 62.013020	 179.300400	-18.244600	 55.147990	 6.145984	-4.255684	-3.568482	 14.421320	-6.432579	-12.296990	-1.509899	 6.215002	 20.021850	-0.669984	 2.412925	 40.052880	-7.456998	 1.573857	 19.493050	 3.073145
 0.010444	-0.019634	 1.200342	 6.768852	 0.849993	-4.059309	-1.943640	-9.379168	-170.327300	 1.790226	-35.707140	 0.839108	 46.473860	 79.715700	-51.308170	-2.349899	 34.486790	-0.136590	-6.523022	-36.621420	-175.076000	 12.254060	-41.521900	 8.709432	 126.334900	 74.928630	-127.653200	 2.344629	 34.951760	 0.149359	-4.809863	 6.905732	 1.775913	-0.499430	 2.335637	 1.204217	-1.643559	-2.916027	-0.839030	-94.510120	 58.933580	 174.175600	 23.687460	 38.682250	-30.109450	-3.630188	-1.735060	-25.004170	-2.323755	-31.949220	-8.626719	-4.831837	 20.366210	-2.901522	-3.809086	 22.388480	 2.129164	-4.751022	 6.217276	 0.107326	 0.059209	-5.333692	 0.349852	-3.366961	 1.995206	 2.173122	 89.401310	 62.022140	 179.079600	-16.956260	 55.699490	 3.894969	-5.609773	-3.876957	 14.200060	-7.206667	-13.766680	-2.969525	 6.178849	 17.777670	-0.710776	 2.693383	 37.232250	-7.697740	 2.036421	 17.265050	 2.878764
 0.008334	-0.057629	 1.198059	 7.042150	 0.843158	-4.096796	-2.541368	-6.767018	-170.605900	 2.124877	-34.365220	 1.000536	 40.036330	 78.881660	-44.980100	-2.320106	 37.916470	-0.221121	-5.903810	-36.796390	-174.700200	 11.505910	-34.457030	 7.011474	 106.122500	 76.838050	-107.839000	 2.336438	 35.946010	 0.173526	-5.420375	 6.947896	 1.758980	-0.490704	 2.784790	 1.294592	-1.639549	-3.273462	-0.898738	-94.536290	 59.018960	 174.105500	 21.828350	 37.363140	-31.779130	-3.653673	-1.707405	-24.792350	-3.373611	-34.778410	-9.453742	-4.856573	 20.537420	-3.095984	-3.781142	 22.735900	 2.100789	-4.708463	 6.712678	 0.077625	 0.132740	-5.427905	 0.325204	-3.238740	 2.013412	 1.947897	 89.357480	 61.853650	 178.980100	-15.579150	 56.016780	 1.406820	-6.801366	-4.059259	 13.734860	-7.821438	-15.889640	-4.297564	 6.171134	 15.504970	-0.597810	 2.920144	 34.748460	-7.888729	 2.490464	 15.013110	 2.703533
 0.004677	-0.095301	 1.194364	 7.289847	 0.672253	-3.637859	-3.069930	-4.145527	-171.468300	 2.233825	-33.447730	 1.037078	 29.980640	 76.610670	-34.676790	-2.248109	 43.853710	-0.384235	-5.311990	-36.385680	-174.910200	 9.257423	-28.034070	 4.744835	 58.982360	 78.009890	-59.017510	 2.339459	 35.588730	 0.164782	-6.102249	 6.946839	 1.387317	-0.438712	 3.536236	 1.259314	-1.644079	-3.598663	-0.957739	-94.496780	 59.261120	 174.149600	 20.173380	 36.494420	-33.581130	-3.754240	-1.614997	-24.188450	-4.636988	-37.512470	-10.336740	-4.882909	 20.640860	-3.281016	-3.761046	 22.983910	 2.080375	-4.659715	 7.275733	 0.043377	 0.207931	-5.479516	 0.265857	-3.062604	 2.106523	 1.921263	 89.355220	 61.578780	 178.984800	-14.437660	 56.051850	-0.739982	-7.744553	-4.230131	 13.487180	-8.579259	-18.284280	-5.305338	 6.215175	 13.346540	-0.270802	 3.058020	 33.141860	-8.003047	 2.892932	 12.966430	 2.561719
-0.000204	-0.133979	 1.188229	 7.739193	 0.211609	-2.832751	-3.168125	-1.233035	-172.883500	 1.288813	-32.999830	 0.509869	 20.550830	 72.262760	-23.813150	-2.101707	 51.527510	-0.642672	-3.686004	-37.044150	-174.905000	 6.451865	-24.765100	 3.033384	 19.448020	 71.557100	-15.869090	 2.339171	 35.622510	 0.165611	-6.887254	 7.071652	 0.598819	-0.417473	 4.641797	 1.412332	-1.694492	-3.932797	-1.165920	-94.434230	 59.299900	 174.277600	 18.774130	 35.679220	-34.887860	-4.037941	-1.528144	-24.777620	-5.462279	-39.393440	-10.593890	-4.895165	 20.775430	-3.396656	-3.748030	 23.143430	 2.067168	-4.608163	 7.866227	 0.006892	 0.292954	-5.459219	 0.251204	-2.892351	 2.308877	 2.139189	 89.317880	 61.405500	 178.902800	-13.504960	 56.011590	-2.582763	-8.352017	-4.449168	 13.660160	-9.313743	-20.773390	-5.670094	 6.294385	 11.320440	 0.151639	 3.184865	 31.595570	-8.106859	 3.225332	 11.242790	 2.454543
-0.006531	-0.183867	 1.178742	 8.980109	-0.589724	-1.895343	-3.056178	 2.828553	-174.901700	-0.043289	-32.148310	-0.210725	 12.111540	 62.157750	-12.776610	-1.762583	 61.287330	-1.117064	-1.467155	-39.103950	-174.231300	 6.672051	-24.078340	 3.045560	 2.037276	 58.518940	 3.806588	 2.337008	 35.879330	 0.171891	-8.111173	 7.363134	-0.217842	-0.619585	 6.199334	 1.305648	-1.856505	-4.359821	-1.294888	-94.354410	 59.095590	 174.481500	 17.458540	 34.544010	-36.212400	-4.287403	-1.512748	-26.304150	-5.737092	-40.409900	-10.585520	-4.877541	 21.020600	-3.375690	-3.719366	 23.492810	 2.038073	-4.549965	 8.526661	-0.034618	 0.385252	-5.387255	 0.280453	-2.772488	 2.697554	 2.342799	 89.158280	 61.287670	 178.531800	-12.551360	 55.852430	-4.283760	-8.285542	-4.522036	 13.928350	-9.187695	-23.766760	-4.769284	 6.351680	 9.415760	 0.424833	 3.340487	 29.604420	-8.232328	 3.506869	 9.761241	 2.371033
